# xmcd
#
# Track frame offsets: 
#        150
#        23420
#        49578
#        69568
#        85790
#        111804
#        127608
#        148618
#        168682
#        190716
#        211006
#        229472
#        252381
#        269188
#        290565
#        311563
#        336623
#
# Disc length: 4769 seconds
#
# Revision: 0
# Processed by: cddbd v1.5.2PL0 Copyright (c) Steve Scherf et al.
# Submitted via: ExactAudioCopy v1.3
#
DISCID=fd129f11
DTITLE=Various Artist - Akella Presents - vol. 160 - Blues-Rock (wome
DTITLE=n and Men)  CD1
DYEAR=2018
DGENRE=Blues
TTITLE0=Amy Douglas and Feints - Black Dog
TTITLE1=Don Griffin - Love My Baby
TTITLE2=Eliza Neals - You Ain't My Dog No More
TTITLE3=Sideburn - Rocking Chair
TTITLE4=Hurricane Ruth - Slow Burn
TTITLE5=Glenn Kaiser Band - Got Everything
TTITLE6=Lee Aaron - Black Cat
TTITLE7=Jon Aamor - Take Me Home
TTITLE8=Nikki Lamborn - Jealousy
TTITLE9=Jay Jesse Johnson - I Ain't Easy
TTITLE10=Karen Lovely - Cold Man Cold
TTITLE11=Bryce Janey - Warning Signs
TTITLE12=Polly O'Keary - Red Light
TTITLE13=The Donnelly Connection - News
TTITLE14=Tiphony Dames - Bomb Inna Backseat
TTITLE15=Gravy - Change
TTITLE16=Saskia De Nijs - Stop Watching Your Enemies
EXTD=
EXTT0=
EXTT1=
EXTT2=
EXTT3=
EXTT4=
EXTT5=
EXTT6=
EXTT7=
EXTT8=
EXTT9=
EXTT10=
EXTT11=
EXTT12=
EXTT13=
EXTT14=
EXTT15=
EXTT16=
PLAYORDER=
